<?xml version="1.0" encoding="utf-8"?>
<!-- Generator: Adobe Illustrator 24.2.3, SVG Export Plug-In . SVG Version: 6.00 Build 0)  -->
<svg version="1.1" id="Capa_1" xmlns="http://www.w3.org/2000/svg" xmlns:xlink="http://www.w3.org/1999/xlink" x="0px" y="0px"
	 viewBox="0 0 512 512" style="enable-background:new 0 0 512 512;" xml:space="preserve">
<style type="text/css">
	.st0{fill:#DC054F;}
	.st1{fill:#FFFFFF;}
</style>
<circle class="st0" cx="255" cy="256.8" r="251.1"/>
<g>
	<g>
		<g>
			<path class="st1" d="M239.5,317.7l-4.2,37.4c-0.3,1.9,0.3,3.6,1.7,5c1.4,1.4,3,2.2,5,2.2h26.3c1.9,0,3.6-0.8,5-2.2
				c1.4-1.4,1.9-3.3,1.7-5l-4.2-37.4c6.7-5,10.8-12.8,10.8-21.1c0-14.4-11.9-26.3-26.3-26.3S229,282.2,229,296.6
				C228.7,304.9,232.9,312.7,239.5,317.7z M255,283.3c7.2,0,13.3,5.8,13.3,13.3c0,5-2.8,9.7-7.5,11.9c-2.5,1.1-3.9,3.9-3.6,6.7
				l3.9,34.4h-11.6l3.9-34.4c0.3-2.8-1.1-5.5-3.6-6.7c-4.7-2.2-7.5-6.7-7.5-11.9C242,289.1,247.8,283.3,255,283.3z"/>
			<path class="st1" d="M367,217.3h-19.7V191c0-50.7-41.3-92.3-92.3-92.3S162.7,140,162.7,191v26.3H143c-3.6,0-6.7,3-6.7,6.7v164.7
				c0,14.4,11.9,26.3,26.3,26.3h184.6c14.4,0,26.3-11.9,26.3-26.3V224C373.7,220.4,370.6,217.3,367,217.3z M176,191
				c0-43.5,35.5-79,79-79s79,35.5,79,79v26.3h-13.3V191c0-36.3-29.7-66-66-66c-36.3,0-66,29.7-66,66v26.3h-13.3V191H176z M307.7,191
				v26.3H202.4V191c0-29.1,23.6-52.7,52.7-52.7S307.7,161.9,307.7,191z M360.4,388.7c0,7.2-5.8,13.3-13.3,13.3H162.4
				c-7.2,0-13.3-5.8-13.3-13.3v-158h211v158H360.4z"/>
		</g>
	</g>
</g>
</svg>
